<mxfile host="app.diagrams.net" modified="2023-10-03T11:23:56.789Z" agent="Mozilla/5.0 (Windows NT 10.0; Win64; x64; rv:109.0) Gecko/20100101 Firefox/117.0" etag="w6ogldBP3AqQqC8-wCFk" version="22.0.0" type="device">
  <diagram name="Page-1" id="VZIIqRRXdtm2IghGHygO">
    <mxGraphModel dx="794" dy="404" grid="1" gridSize="10" guides="1" tooltips="1" connect="1" arrows="1" fold="1" page="1" pageScale="1" pageWidth="1100" pageHeight="850" math="0" shadow="0">
      <root>
        <mxCell id="0" />
        <mxCell id="1" parent="0" />
        <mxCell id="HxMLQ8BKsvM3NlbKGZ2k-1" value="Registers" style="rounded=1;whiteSpace=wrap;html=1;" parent="1" vertex="1">
          <mxGeometry x="240" y="60" width="120" height="60" as="geometry" />
        </mxCell>
        <mxCell id="HxMLQ8BKsvM3NlbKGZ2k-2" value="&lt;div&gt;L1 Cache&lt;/div&gt;" style="rounded=1;whiteSpace=wrap;html=1;" parent="1" vertex="1">
          <mxGeometry x="210" y="170" width="180" height="60" as="geometry" />
        </mxCell>
        <mxCell id="HxMLQ8BKsvM3NlbKGZ2k-3" value="L2 Cache" style="rounded=1;whiteSpace=wrap;html=1;" parent="1" vertex="1">
          <mxGeometry x="179.5" y="280" width="240" height="60" as="geometry" />
        </mxCell>
        <mxCell id="HxMLQ8BKsvM3NlbKGZ2k-4" value="L3 Cache" style="rounded=1;whiteSpace=wrap;html=1;" parent="1" vertex="1">
          <mxGeometry x="127.5" y="390" width="345" height="60" as="geometry" />
        </mxCell>
        <mxCell id="HxMLQ8BKsvM3NlbKGZ2k-5" value="Memory (RAM)" style="rounded=1;whiteSpace=wrap;html=1;" parent="1" vertex="1">
          <mxGeometry x="70" y="500" width="460" height="60" as="geometry" />
        </mxCell>
        <mxCell id="HxMLQ8BKsvM3NlbKGZ2k-6" value="Storage (HDD, SSD, NVMe)" style="rounded=1;whiteSpace=wrap;html=1;" parent="1" vertex="1">
          <mxGeometry y="610" width="600" height="60" as="geometry" />
        </mxCell>
        <mxCell id="HxMLQ8BKsvM3NlbKGZ2k-9" value="" style="shape=flexArrow;endArrow=classic;startArrow=classic;html=1;rounded=0;entryX=0.5;entryY=1;entryDx=0;entryDy=0;exitX=0.5;exitY=0;exitDx=0;exitDy=0;" parent="1" source="HxMLQ8BKsvM3NlbKGZ2k-2" target="HxMLQ8BKsvM3NlbKGZ2k-1" edge="1">
          <mxGeometry width="100" height="100" relative="1" as="geometry">
            <mxPoint x="259.5" y="200" as="sourcePoint" />
            <mxPoint x="359.5" y="100" as="targetPoint" />
          </mxGeometry>
        </mxCell>
        <mxCell id="HxMLQ8BKsvM3NlbKGZ2k-10" value="" style="shape=flexArrow;endArrow=classic;startArrow=classic;html=1;rounded=0;entryX=0.5;entryY=1;entryDx=0;entryDy=0;exitX=0.5;exitY=0;exitDx=0;exitDy=0;" parent="1" source="HxMLQ8BKsvM3NlbKGZ2k-3" target="HxMLQ8BKsvM3NlbKGZ2k-2" edge="1">
          <mxGeometry width="100" height="100" relative="1" as="geometry">
            <mxPoint x="279.5" y="330" as="sourcePoint" />
            <mxPoint x="379.5" y="230" as="targetPoint" />
          </mxGeometry>
        </mxCell>
        <mxCell id="HxMLQ8BKsvM3NlbKGZ2k-11" value="" style="shape=flexArrow;endArrow=classic;startArrow=classic;html=1;rounded=0;entryX=0.5;entryY=1;entryDx=0;entryDy=0;" parent="1" source="HxMLQ8BKsvM3NlbKGZ2k-4" target="HxMLQ8BKsvM3NlbKGZ2k-3" edge="1">
          <mxGeometry width="100" height="100" relative="1" as="geometry">
            <mxPoint x="279.5" y="440" as="sourcePoint" />
            <mxPoint x="379.5" y="340" as="targetPoint" />
          </mxGeometry>
        </mxCell>
        <mxCell id="HxMLQ8BKsvM3NlbKGZ2k-12" value="" style="shape=flexArrow;endArrow=classic;startArrow=classic;html=1;rounded=0;entryX=0.5;entryY=1;entryDx=0;entryDy=0;exitX=0.5;exitY=0;exitDx=0;exitDy=0;" parent="1" source="HxMLQ8BKsvM3NlbKGZ2k-5" target="HxMLQ8BKsvM3NlbKGZ2k-4" edge="1">
          <mxGeometry width="100" height="100" relative="1" as="geometry">
            <mxPoint x="309.5" y="400" as="sourcePoint" />
            <mxPoint x="309.5" y="350" as="targetPoint" />
          </mxGeometry>
        </mxCell>
        <mxCell id="HxMLQ8BKsvM3NlbKGZ2k-13" value="" style="shape=flexArrow;endArrow=classic;startArrow=classic;html=1;rounded=0;entryX=0.5;entryY=1;entryDx=0;entryDy=0;" parent="1" source="HxMLQ8BKsvM3NlbKGZ2k-6" target="HxMLQ8BKsvM3NlbKGZ2k-5" edge="1">
          <mxGeometry width="100" height="100" relative="1" as="geometry">
            <mxPoint x="310.5" y="510" as="sourcePoint" />
            <mxPoint x="310.5" y="460" as="targetPoint" />
          </mxGeometry>
        </mxCell>
        <mxCell id="HxMLQ8BKsvM3NlbKGZ2k-15" value="&lt;font style=&quot;font-size: 30px;&quot;&gt;Dual GPU Hierarchy Simplified&lt;br&gt;&lt;/font&gt;" style="text;html=1;strokeColor=none;fillColor=none;align=center;verticalAlign=middle;whiteSpace=wrap;rounded=0;" parent="1" vertex="1">
          <mxGeometry width="440" height="60" as="geometry" />
        </mxCell>
        <mxCell id="HxMLQ8BKsvM3NlbKGZ2k-20" value="GPU0 - Memory (RAM)" style="rounded=1;whiteSpace=wrap;html=1;" parent="1" vertex="1">
          <mxGeometry x="670" y="330" width="410" height="60" as="geometry" />
        </mxCell>
        <mxCell id="HxMLQ8BKsvM3NlbKGZ2k-32" value="" style="shape=flexArrow;endArrow=classic;startArrow=classic;html=1;rounded=0;entryX=0;entryY=0.5;entryDx=0;entryDy=0;exitX=1;exitY=0.5;exitDx=0;exitDy=0;" parent="1" source="HxMLQ8BKsvM3NlbKGZ2k-5" target="HxMLQ8BKsvM3NlbKGZ2k-20" edge="1">
          <mxGeometry width="100" height="100" relative="1" as="geometry">
            <mxPoint x="540" y="430" as="sourcePoint" />
            <mxPoint x="630" y="420" as="targetPoint" />
          </mxGeometry>
        </mxCell>
        <mxCell id="-W37CHUAneW0-l-FSMGr-1" value="GPU1 - Memory (RAM)" style="rounded=1;whiteSpace=wrap;html=1;" parent="1" vertex="1">
          <mxGeometry x="670" y="500" width="410" height="60" as="geometry" />
        </mxCell>
        <mxCell id="-W37CHUAneW0-l-FSMGr-2" value="" style="shape=flexArrow;endArrow=classic;startArrow=classic;html=1;rounded=0;entryX=0;entryY=0.5;entryDx=0;entryDy=0;exitX=1;exitY=0.5;exitDx=0;exitDy=0;" parent="1" source="HxMLQ8BKsvM3NlbKGZ2k-5" target="-W37CHUAneW0-l-FSMGr-1" edge="1">
          <mxGeometry width="100" height="100" relative="1" as="geometry">
            <mxPoint x="600" y="550" as="sourcePoint" />
            <mxPoint x="740" y="380" as="targetPoint" />
          </mxGeometry>
        </mxCell>
        <mxCell id="-W37CHUAneW0-l-FSMGr-3" value="&lt;font style=&quot;font-size: 20px;&quot;&gt;PCIe&lt;/font&gt;" style="text;html=1;strokeColor=none;fillColor=none;align=center;verticalAlign=middle;whiteSpace=wrap;rounded=0;" parent="1" vertex="1">
          <mxGeometry x="600" y="470" width="60" height="30" as="geometry" />
        </mxCell>
        <mxCell id="-W37CHUAneW0-l-FSMGr-4" value="" style="shape=flexArrow;endArrow=classic;startArrow=classic;html=1;rounded=0;entryX=0.5;entryY=1;entryDx=0;entryDy=0;exitX=0.5;exitY=0;exitDx=0;exitDy=0;" parent="1" source="-W37CHUAneW0-l-FSMGr-1" target="HxMLQ8BKsvM3NlbKGZ2k-20" edge="1">
          <mxGeometry width="100" height="100" relative="1" as="geometry">
            <mxPoint x="540" y="540" as="sourcePoint" />
            <mxPoint x="690" y="540" as="targetPoint" />
          </mxGeometry>
        </mxCell>
        <mxCell id="-W37CHUAneW0-l-FSMGr-5" value="&lt;font style=&quot;font-size: 20px;&quot;&gt;NVLink/&lt;br&gt;?MGPU&lt;br&gt;&lt;/font&gt;" style="text;html=1;strokeColor=none;fillColor=none;align=center;verticalAlign=middle;whiteSpace=wrap;rounded=0;" parent="1" vertex="1">
          <mxGeometry x="794" y="430" width="60" height="30" as="geometry" />
        </mxCell>
      </root>
    </mxGraphModel>
  </diagram>
</mxfile>
